<svg id="Icons" xmlns="http://www.w3.org/2000/svg" width="23.25" height="23.25" viewBox="7000 7000 7400 7400">
  <defs>
    <style>.cls-1{fill:#00714a;}</style>
  </defs>
  <title>travel</title>
  <g id="Travel">
    <circle cx="7200.71" cy="7078.92" r="28.01"/>
  	<path d="M7123.32,7157.9l59.85-41.65l4.97-2.64c11.45-2.31,23.34-0.14,33.23,6.07l3.45,4.3l27.68,47.38l39.03,22.99
  		c1.07,0.63,2.02,1.45,2.8,2.41l0,0c5.65,6.98,0.31,17.35-8.65,16.79l-2.16-0.13c-1.7-0.11-3.36-0.61-4.83-1.47l-45.89-26.87
  		l-11.97-19.2l-12.59,47.38l47.56,48.61c2.09,2.14,3.55,4.81,4.21,7.72l13.23,58.2c0.47,2.08,0.37,4.26-0.3,6.29l0,0
  		c-4.37,13.21-21.06,17.3-31.04,7.61l-0.95-0.92c-1.89-1.84-3.22-4.18-3.81-6.75l-12.81-55.42l-41.15-39.15l-9.02,36.33
  		c-0.46,1.87-1.27,3.64-2.39,5.21l-39.74,56.14c-1.79,2.53-4.02,4.73-6.59,6.49l-3.31,2.27c-11.9,8.15-28.85-3.29-25.74-17.38
  		l0.81-2.55l37.85-55.08l29.18-113.22l-19.7,13.72l-9.66,38.63c-0.38,1.5-1.04,2.91-1.96,4.16l-2.46,3.32
  		c-5.42,7.33-16.87,5.35-19.52-3.37l-0.23-0.75c-0.71-2.35-0.76-4.84-0.13-7.21L7123.32,7157.9z"/>
  </g>
</svg>
